#!OML:ASF H:\Terrain\Patient Classification 1\Terrain2\Thursday\justin.ASF
:FULLY-SPECIFIED
:DEGREES
3451
root -10.0426 17.197 -11.0284 -342.585 -78.9728 -20.8523
lowerback 8.37601 1.79435 -0.608549
upperback 3.93492 2.24652 0.824828
thorax -0.681001 1.06494 0.993259
lowerneck -10.1426 3.246 -6.04543
upperneck 42.8453 3.8615 2.05758
head 17.1992 0.230124 2.47382
rclavicle 3.27995e-015 1.66979e-014
rhumerus -28.8964 -10.6632 -80.4477
rradius 38.0892
rwrist -16.2854
rhand -22.3845 13.0159
rfingers 7.12502
rthumb 4.03745 -16.9256
lclavicle 3.27995e-015 1.66979e-014
lhumerus -35.5255 0.755104 78.8931
lradius 56.4456
lwrist 10.2494
lhand -18.795 19.0932
lfingers 7.12502
lthumb 7.50307 48.9402
rfemur -22.7745 -7.00603 22.0686
rtibia 60.7374
rfoot -19.7367 7.01393
rtoes -7.3165
lfemur -11.0461 2.09535 -16.0514
ltibia 32.6605
lfoot -9.22903 -19.9832
ltoes 26.8846
3452
root -10.0862 17.1802 -11.0497 -343.654 -78.6309 -19.7088
lowerback 8.24209 1.59637 -0.981509
upperback 4.04959 1.95638 1.01562
thorax -0.501103 0.911396 1.43013
lowerneck -10.1504 3.47181 -6.88688
upperneck 42.7251 4.35019 2.33099
head 17.0642 0.343238 2.82199
rclavicle -8.39865e-015 4.37326e-015
rhumerus -28.3799 -9.76532 -80.6315
rradius 38.0144
rwrist -16.7106
rhand -22.2472 12.8421
rfingers 7.12502
rthumb 4.17003 -17.0968
lclavicle -8.39865e-015 4.37326e-015
lhumerus -35.6166 1.74659 78.7775
lradius 56.3124
lwrist 10.2308
lhand -18.8609 19.16
lfingers 7.12502
lthumb 7.43944 49.0091
rfemur -22.348 -5.98913 21.989
rtibia 58.1949
rfoot -19.8119 7.62507
rtoes -9.34692
lfemur -11.2682 1.71739 -15.988
ltibia 33.162
lfoot -8.45025 -20.6832
ltoes 31.5476
3453
root -10.1301 17.1589 -11.0657 -343.802 -78.1253 -19.4508
lowerback 7.96408 1.42742 -0.812639
upperback 4.20922 1.74219 1.0627
thorax -0.172736 0.80209 1.41114
lowerneck -10.3273 3.57426 -7.37
upperneck 42.6462 4.57931 2.59392
head 17.0199 0.406397 3.06688
rclavicle -5.42185e-014 1.23246e-014
rhumerus -27.8669 -9.30668 -80.933
rradius 37.8581
rwrist -16.6614
rhand -22.4445 12.6426
rfingers 7.12502
rthumb 3.97954 -17.2999
lclavicle -5.42185e-014 1.23246e-014
lhumerus -35.6805 1.90409 78.584
lradius 56.3138
lwrist 10.2891
lhand -19.4357 19.3587
lfingers 7.12502
lthumb 6.88456 49.2267
rfemur -21.8977 -4.96351 22.0814
rtibia 55.7583
rfoot -20.019 8.58646
rtoes -11.1436
lfemur -11.5871 1.44887 -15.7035
ltibia 33.6415
lfoot -7.96267 -21.2947
ltoes 33.3871
3454
root -10.1722 17.1368 -11.0762 -343.45 -77.6126 -19.6541
lowerback 7.71279 1.3155 -0.441323
upperback 4.21563 1.62072 1.02883
thorax -0.0129464 0.747464 1.18326
lowerneck -10.2191 3.73637 -7.4136
upperneck 42.6617 4.7609 2.77232
head 16.9736 0.500568 3.18031
rclavicle 3.56322e-014 -3.18055e-015
rhumerus -27.6696 -9.06667 -81.2871
rradius 37.6126
rwrist -16.3586
rhand -22.5735 12.635
rfingers 7.12502
rthumb 3.85497 -17.3099
lclavicle 3.56322e-014 -3.18055e-015
lhumerus -35.8167 1.96964 78.306
lradius 56.2067
lwrist 10.5571
lhand -20.0015 19.5747
lfingers 7.12502
lthumb 6.33832 49.4599
rfemur -21.4878 -3.77673 22.2705
rtibia 53.4546
rfoot -19.9487 9.01365
rtoes -12.8973
lfemur -11.9434 1.52749 -15.3602
ltibia 34.0842
lfoot -8.16111 -21.9245
ltoes 32.3655
3455
root -10.2118 17.1215 -11.086 -343.335 -77.1169 -19.7449
lowerback 7.71562 1.44116 -0.0327685
upperback 4.17661 1.81576 0.893043
thorax -0.0424906 0.853832 0.799017
lowerneck -9.92022 3.69131 -7.02328
upperneck 42.6229 4.53217 2.84109
head 16.8985 0.487275 3.09751
rclavicle -8.10048e-015 1.19271e-015
rhumerus -27.7715 -9.6672 -81.5304
rradius 37.5185
rwrist -16.3044
rhand -22.5096 12.732
rfingers 7.12502
rthumb 3.91663 -17.2118
lclavicle -8.10048e-015 1.19271e-015
lhumerus -35.6886 1.61654 78.0545
lradius 55.9332
lwrist 11.0576
lhand -19.9526 19.6841
lfingers 7.12502
lthumb 6.38553 49.5679
rfemur -20.9622 -2.76114 22.3728
rtibia 51.272
rfoot -19.5548 9.37435
rtoes -12.4648
lfemur -12.1329 1.8363 -15.0785
ltibia 34.5028
lfoot -9.10423 -22.5796
ltoes 28.7682
3456
root -10.2553 17.1168 -11.0996 -344.053 -76.61 -19.0711
lowerback 7.72924 1.63771 0.170269
upperback 4.25341 2.08683 0.727064
thorax 0.0389503 0.993486 0.495084
lowerneck -9.84627 3.51427 -6.39977
upperneck 42.5361 4.21584 2.57842
head 16.8849 0.435891 2.81816
rclavicle 4.32357e-014 3.18055e-015
rhumerus -27.7713 -10.4057 -81.7547
rradius 37.4614
rwrist -16.0439
rhand -23.1017 12.6756
rfingers 7.12502
rthumb 3.34487 -17.2779
lclavicle 4.32357e-014 3.18055e-015
lhumerus -35.295 0.993903 77.8727
lradius 55.437
lwrist 10.9716
lhand -19.499 19.8545
lfingers 7.12502
lthumb 6.82347 49.7246
rfemur -20.3082 -1.56378 22.2351
rtibia 49.2253
rfoot -18.8506 10.381
rtoes -8.52708
lfemur -12.2287 1.96585 -14.9578
ltibia 34.947
lfoot -9.82799 -23.2764
ltoes 26.9733
3457
root -10.2999 17.1109 -11.117 -344.433 -76.0659 -18.7485
lowerback 7.69634 1.63251 0.344661
upperback 4.30973 2.08955 0.715807
thorax 0.122021 0.997408 0.387725
lowerneck -9.90408 3.5529 -6.33864
upperneck 42.66 4.29033 2.5405
head 16.9689 0.467639 2.80876
rclavicle 1.00386e-014 -9.14409e-015
rhumerus -27.6878 -10.1391 -82.0418
rradius 37.2583
rwrist -15.4354
rhand -23.8356 12.6405
rfingers 7.12502
rthumb 2.63613 -17.3229
lclavicle 1.00386e-014 -9.14409e-015
lhumerus -35.2374 1.07276 77.7106
lradius 54.9196
lwrist 10.7096
lhand -19.5143 20.0021
lfingers 7.12502
lthumb 6.80872 49.8727
rfemur -19.6145 0.105596 22.2729
rtibia 47.3302
rfoot -18.1273 10.858
rtoes -5.59424
lfemur -12.3076 1.66592 -14.7494
ltibia 35.3752
lfoot -10.1098 -23.6931
ltoes 27.3139
3458
root -10.3412 17.083 -11.1321 -343.997 -75.5239 -19.2671
lowerback 7.68122 1.6054 0.927002
upperback 4.31159 2.09094 0.680851
thorax 0.155169 1.00841 0.026475
lowerneck -9.88341 3.58492 -6.65274
upperneck 42.8627 4.29019 2.87125
head 17.0535 0.451203 3.02104
rclavicle 5.6753e-014 1.43125e-014
rhumerus -27.704 -9.88717 -82.3328
rradius 37.1675
rwrist -15.4947
rhand -23.582 12.3785
rfingers 7.12502
rthumb 2.88107 -17.5818
lclavicle 5.6753e-014 1.43125e-014
lhumerus -35.2621 1.26871 77.4659
lradius 54.4148
lwrist 11.1099
lhand -19.946 20.0263
lfingers 7.12502
lthumb 6.39197 49.9099
rfemur -18.9877 1.21147 22.6891
rtibia 45.6112
rfoot -17.7796 10.1331
rtoes -8.77057
lfemur -12.3823 1.0155 -14.3772
ltibia 35.7815
lfoot -10.6367 -23.5884
ltoes 26.8287
3459
root -10.3873 17.0577 -11.1444 -344.546 -75.1155 -18.8362
lowerback 7.67892 1.73114 1.34707
upperback 4.36023 2.28232 0.456569
thorax 0.234474 1.11416 -0.451461
lowerneck -9.93995 3.49866 -6.47638
upperneck 43.1207 4.05514 3.02239
head 17.2319 0.390538 3.03474
rclavicle 3.47873e-015 -4.37326e-015
rhumerus -27.7862 -10.3581 -82.6406
rradius 37.2351
rwrist -15.901
rhand -23.0726 12.1245
rfingers 7.12502
rthumb 3.37302 -17.8285
lclavicle 3.47873e-015 -4.37326e-015
lhumerus -35.0366 1.12865 77.0853
lradius 53.8312
lwrist 11.3792
lhand -19.5968 20.0373
lfingers 7.12502
lthumb 6.72907 49.9104
rfemur -18.3349 1.9841 22.7846
rtibia 44.1268
rfoot -17.1633 9.70007
rtoes -8.90131
lfemur -12.3449 0.50531 -14.3139
ltibia 36.1692
lfoot -11.1957 -23.5706
ltoes 26.0934
3460
root -10.4283 17.048 -11.1447 -345.504 -74.6455 -17.7836
lowerback 7.52402 1.64353 1.35375
upperback 4.38695 2.16467 0.476894
thorax 0.34483 1.05647 -0.420611
lowerneck -10.0498 3.62384 -6.25925
upperneck 43.2158 4.37158 2.63094
head 17.3203 0.500006 2.87455
rclavicle 5.60573e-014 -3.57812e-015
rhumerus -27.6669 -9.95694 -82.8108
rradius 37.2139
rwrist -15.7962
rhand -22.5127 12.2753
rfingers 7.12502
rthumb 3.91371 -17.6685
lclavicle 5.60573e-014 -3.57812e-015
lhumerus -35.1872 1.76207 76.8848
lradius 53.6406
lwrist 11.2901
lhand -18.7272 20.565
lfingers 7.12502
lthumb 7.56849 50.4096
rfemur -17.9439 2.91792 22.5807
rtibia 42.9267
rfoot -16.2056 10.1976
rtoes -2.75755
lfemur -12.5365 0.064312 -14.4736
ltibia 36.5162
lfoot -11.9228 -23.6866
ltoes 24.4146
3461
root -10.467 17.0346 -11.1556 -346.147 -74.2221 -17.1069
lowerback 7.46154 1.50418 1.1379
upperback 4.39689 1.96638 0.680386
thorax 0.371136 0.951303 -0.0752959
lowerneck -9.8694 3.84408 -6.29985
upperneck 42.9562 4.91501 2.17395
head 17.1114 0.676676 2.7449
rclavicle -5.77966e-014 7.55382e-015
rhumerus -27.5821 -8.80308 -82.9571
rradius 37.2781
rwrist -16.0582
rhand -22.0875 12.2426
rfingers 7.12502
rthumb 4.32424 -17.6933
lclavicle -5.77966e-014 7.55382e-015
lhumerus -35.4941 2.69593 76.8663
lradius 53.3643
lwrist 11.378
lhand -18.7116 21.3694
lfingers 7.12502
lthumb 7.58357 51.2134
rfemur -17.5444 3.86385 22.5399
rtibia 42.0616
rfoot -15.5792 10.6502
rtoes 3.35086
lfemur -12.6212 -0.21839 -14.4804
ltibia 36.739
lfoot -12.6269 -23.8402
ltoes 22.6454
3462
root -10.5024 17.0229 -11.1766 -346.576 -73.7239 -16.5997
lowerback 7.43878 1.75332 1.37309
upperback 4.33059 2.31518 0.532145
thorax 0.334654 1.13285 -0.383383
lowerneck -9.68103 3.65529 -5.94114
upperneck 42.853 4.53452 2.18155
head 17.0382 0.596858 2.62015
rclavicle 1.30204e-014 3.97569e-016
rhumerus -27.8393 -9.23638 -83.0972
rradius 37.3701
rwrist -16.407
rhand -22.4012 12.431
rfingers 7.12502
rthumb 4.02131 -17.5108
lclavicle 1.30204e-014 3.97569e-016
lhumerus -35.2491 2.43614 76.8409
lradius 52.4867
lwrist 11.1106
lhand -19.1843 21.4454
lfingers 7.12502
lthumb 7.1272 51.3054
rfemur -17.2044 4.58139 22.6259
rtibia 41.5027
rfoot -15.2643 10.6972
rtoes 7.62608
lfemur -12.7529 -0.224384 -14.3178
ltibia 36.8736
lfoot -12.4799 -24.4873
ltoes 23.028
3463
root -10.5374 17.0161 -11.1952 -347.264 -73.0913 -15.7569
lowerback 7.44432 2.34725 2.05708
upperback 4.25453 3.14879 -0.015027
thorax 0.337806 1.5697 -1.38429
lowerneck -9.95509 3.07032 -5.02485
upperneck 43.0669 3.30726 2.52254
head 17.3165 0.292047 2.43954
rclavicle -4.6615e-014 3.18055e-015
rhumerus -28.2389 -11.5861 -83.1793
rradius 37.4914
rwrist -16.2388
rhand -22.2493 12.8462
rfingers 7.12502
rthumb 4.16802 -17.0927
lclavicle -4.6615e-014 3.18055e-015
lhumerus -34.5052 0.520314 76.7212
lradius 51.6039
lwrist 11.0563
lhand -19.0221 21.3931
lfingers 7.12502
lthumb 7.28383 51.2477
rfemur -16.8619 5.01792 22.6216
rtibia 41.1613
rfoot -15.443 10.2175
rtoes 9.84665
lfemur -12.9899 -0.0186939 -14.2226
ltibia 36.9836
lfoot -11.9022 -25.5375
ltoes 24.324
3464
root -10.5769 17.0097 -11.2069 -347.861 -72.5821 -15.1106
lowerback 7.52878 2.86218 2.75314
upperback 4.20031 3.87744 -0.592196
thorax 0.354744 1.95392 -2.41713
lowerneck -10.2153 2.62628 -4.08128
upperneck 43.1838 2.28593 2.82455
head 17.5235 0.078547 2.2581
rclavicle -1.05256e-013 9.54166e-015
rhumerus -28.588 -13.5855 -83.4677
rradius 37.6981
rwrist -15.972
rhand -21.8432 12.9738
rfingers 7.12502
rthumb 4.5602 -16.9571
lclavicle -1.05256e-013 9.54166e-015
lhumerus -33.7734 -1.52677 76.3712
lradius 50.7081
lwrist 11.6185
lhand -18.3039 21.6035
lfingers 7.12502
lthumb 7.97702 51.433
rfemur -16.3789 5.10785 22.6142
rtibia 40.9431
rfoot -16.2415 9.45531
rtoes 9.42824
lfemur -13.0536 -0.043684 -14.2007
ltibia 37.0653
lfoot -11.9904 -25.9722
ltoes 23.9295
3465
root -10.6186 17.0017 -11.2286 -348.152 -72.2965 -14.7453
lowerback 7.24329 2.78347 2.52711
upperback 4.21534 3.75492 -0.423445
thorax 0.492592 1.88971 -2.09388
lowerneck -9.84325 2.87086 -4.27833
upperneck 42.8872 2.85546 2.50798
head 17.2259 0.254467 2.22466
rclavicle 1.74931e-014 -7.95139e-016
rhumerus -28.5104 -12.2754 -83.7848
rradius 37.7321
rwrist -15.9788
rhand -22.2369 12.8017
rfingers 7.12502
rthumb 4.17997 -17.137
lclavicle 1.74931e-014 -7.95139e-016
lhumerus -33.9811 -0.390366 76.2145
lradius 49.9495
lwrist 11.3738
lhand -18.9843 21.4923
lfingers 7.12502
lthumb 7.3203 51.3456
rfemur -15.9654 5.26989 22.704
rtibia 40.746
rfoot -17.2084 8.55084
rtoes 7.05739
lfemur -13.0675 -0.362827 -14.1536
ltibia 37.1393
lfoot -12.5887 -25.8504
ltoes 21.9264
